<svg width="24" height="24" viewBox="0 0 24 24" fill="none" xmlns="http://www.w3.org/2000/svg">
<path d="M21.6633 0C23.7982 1.02129 23.6517 4.34043 23.6517 5.93617C21.0145 8.48935 16.3434 9.51063 14.3376 9.70213C18.0632 10.2638 22.1342 8.44681 23.6517 7.46809C24.3634 10.2766 23.8389 13.0213 23.368 14.5532C20.3959 10.7234 16.0992 10.1277 14.3376 10.1489C18.1888 10.7617 21.6982 14.2766 22.9715 15.9574C22.6366 18.817 20.961 20.234 19.3086 21.2553C19.0156 16.2 15.7329 11.8298 14.1282 10.2766C16.9748 13.5447 17.983 19.5958 18.1051 22.2128C16.6399 20.8851 14.948 21.5319 14.2852 22.0213C16.2527 17.3745 14.8434 12.5532 14.0236 10.7234C15.112 16.9532 13.1515 22.1702 12.0352 24L11.9821 23.9117C10.8561 22.0069 8.90506 16.8558 9.97644 10.7234C9.15665 12.5532 7.74732 17.3745 9.71481 22.0213C9.052 21.5319 7.36009 20.8851 5.89495 22.2128C6.01705 19.5957 7.02521 13.5447 9.87179 10.2766C8.2671 11.8298 4.98447 16.2 4.69143 21.2553C3.03903 20.234 1.36345 18.817 1.02856 15.9574C2.30186 14.2766 5.81124 10.7617 9.66248 10.1489C7.90081 10.1277 3.60408 10.7234 0.631918 14.5532C0.160977 13.0213 -0.363332 10.2766 0.34831 7.46809C1.86581 8.44681 5.93683 10.2638 9.66248 9.70213C7.65662 9.51064 2.98558 8.48935 0.34831 5.93617C0.34831 4.34043 0.201795 1.02128 2.33673 0C1.02856 1.3065 2.59836 7.02128 9.81946 9L9.66248 8.23404C10.0113 8.82981 10.9497 10.5575 11.9125 12.7021C11.9499 12.7853 11.9791 12.8831 12.0032 12.9917C12.0239 12.881 12.0511 12.7832 12.0875 12.7021C13.0503 10.5575 13.9887 8.82979 14.3376 8.23404L14.1806 9C21.4016 7.02128 22.9714 1.30653 21.6633 0Z" fill="#F4F4F4"/>
</svg>
